<svg id="clipboard" xmlns="http://www.w3.org/2000/svg" width="29.094" height="37.822" viewBox="0 0 29.094 37.822">
  <g id="Group_4053" data-name="Group 4053" transform="translate(13.478 3.273)">
    <g id="Group_4052" data-name="Group 4052">
      <ellipse id="Ellipse_348" data-name="Ellipse 348" cx="1.091" cy="1.091" rx="1.091" ry="1.091" fill="#81868b"/>
    </g>
  </g>
  <g id="Group_4055" data-name="Group 4055" transform="translate(0)">
    <g id="Group_4054" data-name="Group 4054">
      <path id="Path_12119" data-name="Path 12119" d="M77.093,8.728a2.909,2.909,0,0,0-2.909-2.909H70.144a4.352,4.352,0,0,0-2.026-1.285A2,2,0,0,1,66.74,3.156a4.366,4.366,0,0,0-8.389,0,2.005,2.005,0,0,1-1.38,1.379,4.352,4.352,0,0,0-2.024,1.285H50.908A2.909,2.909,0,0,0,48,8.728V34.912a2.909,2.909,0,0,0,2.909,2.909H74.183a2.909,2.909,0,0,0,2.909-2.909C77.093,26.65,77.093,18.738,77.093,8.728ZM55.273,8.7a2.925,2.925,0,0,1,2.1-2.773,3.452,3.452,0,0,0,2.375-2.374,2.911,2.911,0,0,1,5.593,0,3.448,3.448,0,0,0,2.374,2.374,2.922,2.922,0,0,1,2.1,2.8v1.455H55.273ZM74.183,36.367H50.908a1.456,1.456,0,0,1-1.455-1.455V8.728a1.456,1.456,0,0,1,1.455-1.455h3.159a4.35,4.35,0,0,0-.249,1.42v2.944H71.274V8.728a4.351,4.351,0,0,0-.251-1.455h3.161a1.456,1.456,0,0,1,1.455,1.455c0,4.159,0,23.662,0,26.184A1.456,1.456,0,0,1,74.183,36.367Z" transform="translate(-47.999)" fill="#81868b"/>
    </g>
  </g>
  <g id="Group_4057" data-name="Group 4057" transform="translate(6.968 17.684)">
    <g id="Group_4056" data-name="Group 4056">
      <path id="Path_12120" data-name="Path 12120" d="M138.268,194.508l-8.743,8.743-3.854-3.854-1.029,1.029,4.882,4.882,9.772-9.772Z" transform="translate(-124.642 -194.508)" fill="#81868b"/>
    </g>
  </g>
</svg>
