<svg xmlns="http://www.w3.org/2000/svg" width="15.61" height="17.84" viewBox="0 0 15.61 17.84">
  <path id="Icon_metro-attachment" data-name="Icon metro-attachment" d="M14.577,7.626,13.445,6.495,7.787,12.152a2.4,2.4,0,1,0,3.395,3.394l6.79-6.789A4,4,0,0,0,12.314,3.1L5.185,10.229l-.015.015a5.58,5.58,0,0,0,7.892,7.89l.014-.015h0l4.866-4.866L16.81,12.122l-4.866,4.865L11.929,17A3.979,3.979,0,0,1,6.3,11.375l.015-.015h0l7.13-7.128a2.4,2.4,0,0,1,3.4,3.394l-6.79,6.789a.8.8,0,0,1-1.132-1.131l5.659-5.658Z" transform="translate(-3.535 -1.928)" fill="#929292"/>
</svg>
