<svg xmlns="http://www.w3.org/2000/svg" width="22.361" height="19.566" viewBox="0 0 22.361 19.566">
  <path id="Icon_awesome-camera" data-name="Icon awesome-camera" d="M22.361,7.141V19.72a2.1,2.1,0,0,1-2.1,2.1H2.1A2.1,2.1,0,0,1,0,19.72V7.141a2.1,2.1,0,0,1,2.1-2.1H5.94l.537-1.437A2.093,2.093,0,0,1,8.438,2.25h5.481A2.093,2.093,0,0,1,15.88,3.608l.542,1.437h3.843A2.1,2.1,0,0,1,22.361,7.141Zm-5.94,6.289a5.241,5.241,0,1,0-5.241,5.241A5.245,5.245,0,0,0,16.421,13.431Zm-1.4,0A3.843,3.843,0,1,1,11.18,9.587,3.849,3.849,0,0,1,15.024,13.431Z" transform="translate(0 -2.25)" fill="#fff"/>
</svg>
