<svg xmlns="http://www.w3.org/2000/svg" width="14.826" height="14.826" viewBox="0 0 14.826 14.826">
  <path id="Icon_awesome-check-circle" data-name="Icon awesome-check-circle" d="M15.389,7.976A7.413,7.413,0,1,1,7.976.563,7.413,7.413,0,0,1,15.389,7.976ZM7.118,11.9l5.5-5.5a.478.478,0,0,0,0-.676l-.676-.676a.478.478,0,0,0-.676,0L6.78,9.534,4.686,7.439a.478.478,0,0,0-.676,0l-.676.676a.478.478,0,0,0,0,.676L6.442,11.9a.478.478,0,0,0,.676,0Z" transform="translate(-0.563 -0.563)" fill="#707070"/>
</svg>
