<svg id="contact" xmlns="http://www.w3.org/2000/svg" width="32.654" height="37.097" viewBox="0 0 32.654 37.097">
  <path id="Path_12121" data-name="Path 12121" d="M26.165,0H5.293A4.418,4.418,0,0,0,.877,4.416V6.324H-1.2a.883.883,0,0,0-.883.883.883.883,0,0,0,.883.883H.868v5.794H-1.2a.883.883,0,0,0-.883.883.883.883,0,0,0,.883.883H.868v5.794H-1.2a.883.883,0,0,0-.883.883.883.883,0,0,0,.883.883H.868v5.794H-1.2a.883.883,0,0,0-.883.883.883.883,0,0,0,.883.883H.868v1.908A4.418,4.418,0,0,0,5.284,37.1H26.156a4.418,4.418,0,0,0,4.416-4.416V4.416A4.41,4.41,0,0,0,26.165,0Zm2.65,32.681a2.658,2.658,0,0,1-2.65,2.65H5.293a2.658,2.658,0,0,1-2.65-2.65V30.773H4.71a.883.883,0,1,0,0-1.767H2.643V23.212H4.71a.883.883,0,1,0,0-1.767H2.643V15.651H4.71a.883.883,0,0,0,0-1.767H2.643V8.091H4.71a.883.883,0,1,0,0-1.767H2.643V4.416a2.658,2.658,0,0,1,2.65-2.65H26.165a2.658,2.658,0,0,1,2.65,2.65Zm0,0" transform="translate(2.082)" fill="#81868b"/>
  <path id="Path_12122" data-name="Path 12122" d="M193.577,146.193a4.284,4.284,0,1,0-4.284-4.284A4.284,4.284,0,0,0,193.577,146.193Zm0-6.81a2.517,2.517,0,1,1-2.517,2.517A2.518,2.518,0,0,1,193.577,139.383Zm0,0" transform="translate(-175.77 -127.9)" fill="#81868b"/>
  <path id="Path_12123" data-name="Path 12123" d="M163.718,279a6.6,6.6,0,0,0-6.554,6.783.886.886,0,0,0,.883.883h11.341a.886.886,0,0,0,.883-.883A6.6,6.6,0,0,0,163.718,279ZM159,284.9a4.758,4.758,0,0,1,9.433,0Zm0,0" transform="translate(-145.912 -259.286)" fill="#81868b"/>
</svg>
