<svg id="deal" xmlns="http://www.w3.org/2000/svg" width="44.733" height="29.484" viewBox="0 0 44.733 29.484">
  <g id="Group_4058" data-name="Group 4058" transform="translate(0 0)">
    <path id="Path_12124" data-name="Path 12124" d="M44.733,94.88a3.143,3.143,0,0,0-.642-1.936l-3.544-4.535a3.048,3.048,0,0,0-2.4-1.139,2.955,2.955,0,0,0-1.568.439l-3.456,2.15a3.153,3.153,0,0,1-1.588.387,2.879,2.879,0,0,1-1.218-.239l-3.384-1.639A4.077,4.077,0,0,0,25.166,88a4.4,4.4,0,0,0-2.484.716l-.395.277-1.344-.669a5.07,5.07,0,0,0-2.2-.453,5.274,5.274,0,0,0-2.023.371l-2.305.984a4.215,4.215,0,0,1-1.565.266,4.213,4.213,0,0,1-1.564-.266l-2.307-.984a3.358,3.358,0,0,0-1.317-.257,4.009,4.009,0,0,0-1.5.294,3.406,3.406,0,0,0-1.264.87l-4.2,4.7a2.728,2.728,0,0,0,.266,3.9l3.919,3.343L3.022,103.03a2.769,2.769,0,0,0,.1,3.922l.377.358a2.765,2.765,0,0,0,1.229.666,2.738,2.738,0,0,0,.516,3.326h0l.378.36a2.805,2.805,0,0,0,3.011.545,2.74,2.74,0,0,0,.771,1.342l.378.36a2.8,2.8,0,0,0,3.469.3,2.75,2.75,0,0,0,.725,1.191l.378.36a2.8,2.8,0,0,0,3.941-.093l1.643-1.716,2.232,2.066a2.8,2.8,0,0,0,3.938-.142l.356-.382a2.749,2.749,0,0,0,.625-1.129l.865.8a2.805,2.805,0,0,0,3.941-.145l.354-.381a2.739,2.739,0,0,0,.711-1.532,2.729,2.729,0,0,0,2.736-.785l.355-.381a2.761,2.761,0,0,0,.743-1.888,2.832,2.832,0,0,0-.076-.622,2.762,2.762,0,0,0,1.672-.846l.356-.382a2.773,2.773,0,0,0-.145-3.922l-.666-.616,6.014-6.65A3.166,3.166,0,0,0,44.733,94.88ZM5.418,106.561a1.265,1.265,0,0,1-.874-.346l-.378-.358a1.261,1.261,0,0,1-.044-1.783L7.93,100.1a1.278,1.278,0,0,1,1.792-.043l.376.359a2.386,2.386,0,0,1,.39.914,1.255,1.255,0,0,1-.225.713l-4.109,4.282A1.282,1.282,0,0,1,5.418,106.561Zm3.041,3.963a1.278,1.278,0,0,1-1.791.042l-.378-.359h0a1.265,1.265,0,0,1-.043-1.783s5.075-5.283,5.118-5.334a1.271,1.271,0,0,1,1.752-.009l.378.36a1.263,1.263,0,0,1,.043,1.783Zm4.159,2.246a1.276,1.276,0,0,1-1.791.042l-.379-.359a1.253,1.253,0,0,1-.11-1.7l3.534-3.689a1.267,1.267,0,0,1,1.721.017l.379.36a1.262,1.262,0,0,1,.043,1.783Zm6.715-.389-2.145,2.238a1.277,1.277,0,0,1-1.791.042l-.378-.359a1.262,1.262,0,0,1-.043-1.783l2.144-2.238a1.278,1.278,0,0,1,1.792-.042l.379.359a1.263,1.263,0,0,1,.042,1.783Zm18.631-6.071a1.249,1.249,0,0,1-.338.857l-.355.381a1.277,1.277,0,0,1-1.791.065l-5.988-5.538-1.035,1.109,6.409,5.938a1.262,1.262,0,0,1,.066,1.783l-.354.381a1.277,1.277,0,0,1-1.79.066L26.8,105.814l-1.034,1.109,5.315,4.915a1.26,1.26,0,0,1,.052,1.765l-.355.381a1.279,1.279,0,0,1-1.792.066l-5.3-4.9h0l-1.032,1.111h0l.02.019,2.657,2.452a1.248,1.248,0,0,1,.023,1.727l-.355.382a1.274,1.274,0,0,1-1.788.065l-2.313-2.142a2.731,2.731,0,0,0-.548-3.262l-.379-.36a2.787,2.787,0,0,0-1.922-.764c-.053,0-.107.012-.16.015,0-.013,0-.026,0-.039a5.294,5.294,0,0,0-.862-2.009l-.378-.359a2.777,2.777,0,0,0-1.4-.715,2.734,2.734,0,0,0-.7-2.927l-.378-.36a2.792,2.792,0,0,0-1.923-.764c-.08,0-.16.016-.239.023a2.761,2.761,0,0,0-.853-1.922h0l-.377-.358a2.8,2.8,0,0,0-3.941.093l-.9.938L1.953,96.6a1.22,1.22,0,0,1-.118-1.744l4.2-4.7a1.917,1.917,0,0,1,.7-.474A2.5,2.5,0,0,1,7.66,89.5a1.842,1.842,0,0,1,.718.135l2.306.984A5.674,5.674,0,0,0,12.847,91a5.675,5.675,0,0,0,2.163-.389l2.305-.984a3.776,3.776,0,0,1,1.425-.249,3.618,3.618,0,0,1,1.523.293l.616.307-2.351,1.653a2.715,2.715,0,0,0-.62,3.854h0l.311.417a3.035,3.035,0,0,0,2.428,1.189,2.949,2.949,0,0,0,1.519-.414l1.406-.844a2.316,2.316,0,0,1,1.168-.284,2.432,2.432,0,0,1,1.375.387L30,98.728a38.851,38.851,0,0,1,3.057,2.494l4.5,4.163A1.254,1.254,0,0,1,37.964,106.309ZM42.814,96l-6,6.632-2.723-2.517a40.067,40.067,0,0,0-3.2-2.613L27,94.709a3.93,3.93,0,0,0-2.265-.672,3.829,3.829,0,0,0-1.954.5l-1.4.844a1.427,1.427,0,0,1-.734.2A1.516,1.516,0,0,1,19.438,95l-.31-.417h0A1.2,1.2,0,0,1,19.4,92.87l4.157-2.921a2.926,2.926,0,0,1,1.606-.438,2.575,2.575,0,0,1,1.1.219l3.384,1.639a4.372,4.372,0,0,0,1.883.392,4.63,4.63,0,0,0,2.394-.618l3.457-2.151a1.437,1.437,0,0,1,.762-.209,1.534,1.534,0,0,1,1.2.556l3.544,4.535a1.65,1.65,0,0,1,.323,1.006A1.682,1.682,0,0,1,42.814,96Z" transform="translate(0 -87.27)" fill="#81868b"/>
  </g>
</svg>
