<svg xmlns="http://www.w3.org/2000/svg" width="34.917" height="35.771" viewBox="0 0 34.917 35.771">
  <g id="baseline-settings-20px" transform="translate(0.799 0.75)">
    <path id="Path_11407" data-name="Path 11407" d="M31.626,20.806a13.98,13.98,0,0,0,.107-1.671,10.564,10.564,0,0,0-.129-1.671l3.62-2.827a.885.885,0,0,0,.214-1.092L32.012,7.612a.871.871,0,0,0-1.05-.386L26.7,8.94a12.549,12.549,0,0,0-2.892-1.671l-.643-4.541A.855.855,0,0,0,22.309,2H15.455a.834.834,0,0,0-.835.728l-.643,4.541A12.885,12.885,0,0,0,11.085,8.94L6.822,7.226a.847.847,0,0,0-1.05.386L2.346,13.545a.83.83,0,0,0,.214,1.092l3.62,2.827a10.095,10.095,0,0,0-.021,3.341l-3.62,2.827a.885.885,0,0,0-.214,1.092l3.427,5.933a.871.871,0,0,0,1.05.386l4.263-1.714A12.549,12.549,0,0,0,13.955,31l.643,4.541a.871.871,0,0,0,.857.728h6.854a.818.818,0,0,0,.835-.728L23.787,31a12.885,12.885,0,0,0,2.892-1.671l4.263,1.714a.847.847,0,0,0,1.05-.386l3.427-5.933a.83.83,0,0,0-.214-1.092l-3.577-2.827ZM18.882,25.562a6.426,6.426,0,1,1,6.426-6.426A6.445,6.445,0,0,1,18.882,25.562Z" transform="translate(-2.222 -2)" fill="none" stroke="#81868b" stroke-width="1.5"/>
  </g>
</svg>
